<svg width="40" height="16" viewBox="0 0 58 24" fill="none" xmlns="http://www.w3.org/2000/svg">
<rect width="58" height="24" fill="#79B927"/>
<path d="M18.6286 16V9.184H15.9406V7.6H23.2606V9.184H20.5726V16H18.6286ZM28.2694 16.144C27.6054 16.144 26.9894 16.036 26.4214 15.82C25.8614 15.604 25.3734 15.3 24.9574 14.908C24.5494 14.516 24.2294 14.056 23.9974 13.528C23.7734 13 23.6614 12.424 23.6614 11.8C23.6614 11.176 23.7734 10.6 23.9974 10.072C24.2294 9.544 24.5534 9.084 24.9694 8.692C25.3854 8.3 25.8734 7.996 26.4334 7.78C26.9934 7.564 27.6014 7.456 28.2574 7.456C28.9214 7.456 29.5294 7.564 30.0814 7.78C30.6414 7.996 31.1254 8.3 31.5334 8.692C31.9494 9.084 32.2734 9.544 32.5054 10.072C32.7374 10.592 32.8534 11.168 32.8534 11.8C32.8534 12.424 32.7374 13.004 32.5054 13.54C32.2734 14.068 31.9494 14.528 31.5334 14.92C31.1254 15.304 30.6414 15.604 30.0814 15.82C29.5294 16.036 28.9254 16.144 28.2694 16.144ZM28.2574 14.488C28.6334 14.488 28.9774 14.424 29.2894 14.296C29.6094 14.168 29.8894 13.984 30.1294 13.744C30.3694 13.504 30.5534 13.22 30.6814 12.892C30.8174 12.564 30.8854 12.2 30.8854 11.8C30.8854 11.4 30.8174 11.036 30.6814 10.708C30.5534 10.38 30.3694 10.096 30.1294 9.856C29.8974 9.616 29.6214 9.432 29.3014 9.304C28.9814 9.176 28.6334 9.112 28.2574 9.112C27.8814 9.112 27.5334 9.176 27.2134 9.304C26.9014 9.432 26.6254 9.616 26.3854 9.856C26.1454 10.096 25.9574 10.38 25.8214 10.708C25.6934 11.036 25.6294 11.4 25.6294 11.8C25.6294 12.192 25.6934 12.556 25.8214 12.892C25.9574 13.22 26.1414 13.504 26.3734 13.744C26.6134 13.984 26.8934 14.168 27.2134 14.296C27.5334 14.424 27.8814 14.488 28.2574 14.488ZM34.3144 16V7.6H37.9504C38.7024 7.6 39.3504 7.724 39.8944 7.972C40.4384 8.212 40.8584 8.56 41.1544 9.016C41.4504 9.472 41.5984 10.016 41.5984 10.648C41.5984 11.272 41.4504 11.812 41.1544 12.268C40.8584 12.724 40.4384 13.076 39.8944 13.324C39.3504 13.564 38.7024 13.684 37.9504 13.684H35.3944L36.2584 12.808V16H34.3144ZM36.2584 13.024L35.3944 12.1H37.8424C38.4424 12.1 38.8904 11.972 39.1864 11.716C39.4824 11.46 39.6304 11.104 39.6304 10.648C39.6304 10.184 39.4824 9.824 39.1864 9.568C38.8904 9.312 38.4424 9.184 37.8424 9.184H35.3944L36.2584 8.26V13.024Z" fill="white"/>
</svg>
